<svg width="174" height="34" viewBox="0 0 174 34" fill="none" xmlns="http://www.w3.org/2000/svg">
<g clip-path="url(#clip0_12_35)">
<mask id="mask0_12_35" style="mask-type:luminance" maskUnits="userSpaceOnUse" x="0" y="0" width="174" height="34">
<path d="M0 0H173.089V33.475H0V0Z" fill="white"/>
</mask>
<g mask="url(#mask0_12_35)">
<path d="M55.5719 10.52C56.4794 10.5217 57.3744 10.7314 58.1881 11.1331C59.0019 11.5348 59.7127 12.1177 60.2659 12.837C60.2952 12.8765 60.3361 12.9059 60.3829 12.9211C60.4296 12.9363 60.48 12.9366 60.5269 12.922C60.5582 12.9123 60.5871 12.8963 60.6119 12.875L62.5889 11.301C62.6141 11.2808 62.6351 11.2559 62.6507 11.2277C62.6662 11.1994 62.676 11.1684 62.6796 11.1364C62.6831 11.1043 62.6803 11.0719 62.6712 11.0409C62.6622 11.01 62.6471 10.9811 62.6269 10.956C61.7854 9.86441 60.7045 8.98071 59.4674 8.37301C58.2303 7.76532 56.8702 7.44986 55.4919 7.45097C50.3309 7.45097 46.1449 11.896 46.1449 17.362C46.1449 22.828 50.3449 27.272 55.4919 27.272C56.8697 27.2765 58.23 26.9631 59.4668 26.356C60.7037 25.749 61.7837 24.8647 62.6229 23.772C62.6441 23.747 62.6599 23.718 62.6693 23.6867C62.6787 23.6554 62.6816 23.6225 62.6778 23.59C62.6739 23.5576 62.6634 23.5263 62.6469 23.498C62.6304 23.4698 62.6083 23.4453 62.5819 23.426L60.6079 21.869C60.5828 21.8486 60.5538 21.8334 60.5228 21.8243C60.4917 21.8152 60.4592 21.8123 60.427 21.8158C60.3948 21.8194 60.3637 21.8292 60.3354 21.8449C60.307 21.8605 60.2821 21.8816 60.2619 21.907C59.7062 22.622 58.9953 23.2013 58.1828 23.6011C57.3703 24.001 56.4775 24.2109 55.5719 24.215C52.0439 24.215 49.2849 21.205 49.2849 17.369C49.2849 13.533 52.0449 10.519 55.5719 10.519V10.52ZM65.1749 6.88697H67.6529C67.7182 6.88697 67.7808 6.91288 67.8269 6.95902C67.873 7.00515 67.8989 7.06772 67.8989 7.13297V26.774C67.8991 26.8058 67.8929 26.8374 67.8808 26.8669C67.8687 26.8964 67.8509 26.9232 67.8284 26.9457C67.8059 26.9683 67.7792 26.9862 67.7498 26.9984C67.7204 27.0107 67.6888 27.017 67.6569 27.017H65.1779C65.1127 27.017 65.0501 26.991 65.004 26.9449C64.9579 26.8988 64.9319 26.8362 64.9319 26.771V7.13297C64.9311 7.10069 64.9368 7.06859 64.9487 7.03857C64.9606 7.00856 64.9784 6.98125 65.0011 6.95829C65.0238 6.93532 65.0509 6.91716 65.0808 6.90491C65.1106 6.89266 65.1427 6.88655 65.1749 6.88697ZM76.3449 13.681C73.0609 13.681 69.7369 16.006 69.7369 20.451C69.7369 24.356 72.5789 27.304 76.3459 27.304C80.1119 27.304 82.9819 24.357 82.9819 20.451C82.9819 16.546 80.1279 13.681 76.3449 13.681ZM79.9909 20.451C79.9909 22.706 78.4229 24.408 76.3459 24.408C74.2689 24.408 72.7319 22.706 72.7319 20.451C72.7319 18.196 74.2859 16.577 76.3459 16.577C78.4059 16.577 79.9909 18.241 79.9909 20.451ZM96.3409 13.965H93.8619C93.8136 13.9647 93.7663 13.9786 93.7259 14.0051C93.6855 14.0317 93.6539 14.0695 93.6349 14.114C93.6225 14.1434 93.6161 14.175 93.6159 14.207V20.78C93.6159 23.346 91.8439 24.256 90.3239 24.256C88.9809 24.256 87.6279 23.243 87.6279 20.976V14.207C87.6283 14.1585 87.6139 14.1111 87.5868 14.0709C87.5597 14.0307 87.521 13.9997 87.4759 13.982C87.446 13.9702 87.4141 13.9644 87.3819 13.965H84.9029C84.8388 13.965 84.7772 13.9905 84.7318 14.0358C84.6864 14.0812 84.6609 14.1428 84.6609 14.207V21.298C84.6609 25.19 86.4229 27.331 89.6249 27.331C90.7879 27.331 92.6709 26.664 93.3779 25.191L93.6169 25.238V26.774C93.6169 26.839 93.6427 26.9015 93.6886 26.9476C93.7346 26.9937 93.7969 27.0197 93.8619 27.02H96.3409C96.4062 27.02 96.4688 26.994 96.5149 26.9479C96.561 26.9018 96.5869 26.8392 96.5869 26.774V14.207C96.5869 14.1748 96.5806 14.143 96.5681 14.1134C96.5557 14.0838 96.5375 14.0569 96.5146 14.0344C96.4918 14.0119 96.4646 13.9942 96.4348 13.9822C96.405 13.9703 96.3731 13.9644 96.3409 13.965ZM111.562 6.88697H109.08C109.048 6.8869 109.016 6.89334 108.986 6.90588C108.957 6.91843 108.93 6.93682 108.908 6.95997C108.885 6.9826 108.867 7.00959 108.855 7.03932C108.843 7.06905 108.837 7.1009 108.838 7.13297V15.913L108.686 15.67C107.931 14.456 106.307 13.671 104.549 13.671C101.516 13.671 98.4489 16.006 98.4489 20.468C98.4489 24.36 101.084 27.293 104.573 27.293C105.902 27.293 107.775 26.761 108.686 25.266L108.838 25.017V26.774C108.837 26.8062 108.843 26.8384 108.855 26.8684C108.867 26.8983 108.885 26.9254 108.908 26.948C108.93 26.9709 108.957 26.9891 108.987 27.0015C109.016 27.0139 109.048 27.0202 109.08 27.02H111.562C111.627 27.0197 111.689 26.9938 111.735 26.948C111.78 26.9011 111.805 26.8388 111.805 26.774V7.13397C111.805 7.06908 111.78 7.00668 111.735 6.95997C111.712 6.93693 111.685 6.91861 111.656 6.90608C111.626 6.89355 111.594 6.88705 111.562 6.88697ZM108.793 20.451C108.81 20.9541 108.726 21.4556 108.548 21.9263C108.37 22.397 108.099 22.8276 107.753 23.1932C107.407 23.5588 106.992 23.852 106.532 24.0559C106.071 24.2598 105.575 24.3703 105.072 24.381C103.043 24.381 101.454 22.651 101.454 20.451C101.454 18.251 103.043 16.577 105.072 16.577C106.076 16.6024 107.03 17.0239 107.725 17.7496C108.421 18.4752 108.801 19.4462 108.783 20.451H108.793ZM115.277 13.965H117.755C117.819 13.9652 117.881 13.9908 117.926 14.0361C117.972 14.0814 117.997 14.1428 117.998 14.207V26.774C117.998 26.8383 117.972 26.9 117.926 26.9455C117.881 26.991 117.819 27.0167 117.755 27.017H115.277C115.212 27.017 115.149 26.991 115.103 26.9449C115.057 26.8988 115.031 26.8362 115.031 26.771V14.207C115.032 14.1424 115.058 14.0809 115.104 14.0356C115.15 13.9903 115.212 13.965 115.277 13.965ZM116.527 7.28497C116.14 7.27665 115.76 7.3847 115.435 7.59511C115.111 7.80551 114.857 8.10856 114.707 8.46497C114.608 8.70197 114.557 8.95497 114.557 9.21197C114.56 9.46805 114.613 9.72111 114.713 9.95669C114.813 10.1923 114.959 10.4058 115.142 10.585C115.325 10.7642 115.542 10.9056 115.779 11.0012C116.017 11.0968 116.271 11.1446 116.527 11.142C116.782 11.1454 117.035 11.098 117.271 11.0024C117.508 10.9067 117.723 10.7649 117.904 10.5852C118.084 10.4054 118.228 10.1914 118.325 9.95556C118.422 9.71976 118.471 9.46696 118.469 9.21197C118.473 8.95655 118.425 8.703 118.328 8.46644C118.232 8.22987 118.089 8.01512 117.908 7.83497C117.727 7.65494 117.511 7.51342 117.274 7.4189C117.036 7.32439 116.782 7.27883 116.527 7.28497ZM128.207 13.681C127.12 13.681 125.188 14.266 124.451 15.823L124.212 15.774V14.207C124.212 14.175 124.205 14.1435 124.193 14.114C124.167 14.0544 124.12 14.0071 124.06 13.982C124.03 13.9702 123.998 13.9645 123.966 13.965H121.487C121.455 13.9648 121.424 13.971 121.394 13.9831C121.365 13.9952 121.338 14.0131 121.316 14.0356C121.293 14.058 121.275 14.0848 121.263 14.1142C121.251 14.1436 121.245 14.1751 121.245 14.207V26.774C121.244 26.8062 121.25 26.8384 121.262 26.8684C121.274 26.8983 121.292 26.9254 121.315 26.948C121.337 26.9709 121.364 26.9891 121.394 27.0015C121.423 27.0139 121.455 27.0202 121.487 27.02H123.966C124.031 27.02 124.094 26.994 124.14 26.9479C124.186 26.9018 124.212 26.8392 124.212 26.774V20.202C124.212 17.656 125.984 16.742 127.504 16.742C128.847 16.742 130.201 17.749 130.201 19.994V26.774C130.201 26.8063 130.207 26.8383 130.219 26.8682C130.231 26.8981 130.249 26.9253 130.272 26.9482C130.295 26.971 130.322 26.9892 130.352 27.0015C130.382 27.0138 130.414 27.0201 130.446 27.02H132.932C132.997 27.02 133.06 26.994 133.106 26.9479C133.152 26.9018 133.178 26.8392 133.178 26.774V19.686C133.171 15.816 131.405 13.681 128.207 13.681ZM147.984 13.965H145.505C145.44 13.9645 145.377 13.9897 145.331 14.035C145.285 14.0808 145.26 14.1424 145.259 14.207V15.937L145.11 15.695C144.352 14.48 142.729 13.695 140.956 13.695C137.927 13.695 134.857 16.03 134.857 20.492C134.857 24.384 137.491 27.317 140.984 27.317C142.31 27.317 144.183 26.785 145.097 25.29L145.245 25.041V26.774C145.245 26.8392 145.271 26.9018 145.317 26.9479C145.363 26.994 145.426 27.02 145.491 27.02H147.97C148.002 27.0202 148.034 27.0139 148.063 27.0015C148.093 26.9891 148.12 26.9709 148.142 26.948C148.165 26.9252 148.183 26.898 148.195 26.8681C148.207 26.8382 148.213 26.8062 148.212 26.774V14.207C148.212 14.1451 148.188 14.0856 148.146 14.0406C148.104 13.9956 148.046 13.9685 147.984 13.965ZM145.214 20.451C145.24 21.2102 145.037 21.9597 144.633 22.6027C144.228 23.2457 143.641 23.7526 142.945 24.058C142.483 24.2615 141.986 24.3713 141.482 24.381C139.454 24.381 137.868 22.651 137.868 20.451C137.868 18.251 139.454 16.577 141.482 16.577C142.489 16.599 143.446 17.019 144.144 17.745C144.842 18.471 145.224 19.4439 145.207 20.451H145.214ZM159.293 14.01C158.728 13.781 158.124 13.6635 157.514 13.664C155.866 13.664 154.668 14.65 154.052 16.518L153.831 16.487V14.207C153.831 14.175 153.824 14.1435 153.812 14.114C153.786 14.0544 153.739 14.0071 153.679 13.982C153.649 13.9702 153.617 13.9645 153.585 13.965H151.106C151.074 13.9645 151.042 13.9704 151.012 13.9825C150.983 13.9945 150.956 14.0123 150.933 14.035C150.91 14.0576 150.892 14.0844 150.879 14.114C150.867 14.1435 150.86 14.175 150.86 14.207V26.774C150.86 26.8392 150.886 26.9018 150.932 26.9479C150.978 26.994 151.041 27.02 151.106 27.02H153.612C153.644 27.02 153.676 27.0136 153.706 27.0012C153.735 26.9888 153.762 26.9706 153.785 26.9477C153.807 26.9249 153.825 26.8977 153.837 26.8679C153.849 26.8381 153.855 26.8061 153.855 26.774V22.485C153.855 17.365 155.901 16.605 157.123 16.605C157.638 16.606 158.148 16.7114 158.622 16.915C158.655 16.9305 158.691 16.9386 158.727 16.9386C158.764 16.9386 158.8 16.9305 158.833 16.915C158.864 16.8981 158.892 16.8747 158.913 16.8462C158.935 16.8177 158.95 16.7848 158.957 16.75L159.449 14.29C159.461 14.2323 159.452 14.1723 159.423 14.1209C159.394 14.0695 159.348 14.0301 159.293 14.01ZM173.047 14.072C173.025 14.0385 172.994 14.0112 172.959 13.9925C172.923 13.9738 172.883 13.9644 172.843 13.965H170.174C170.125 13.9656 170.077 13.9808 170.036 14.0085C169.995 14.0362 169.964 14.0754 169.945 14.121L166.715 22.485L163.454 14.121C163.436 14.0754 163.404 14.0362 163.364 14.0084C163.323 13.9807 163.275 13.9656 163.226 13.965H160.505C160.465 13.9647 160.426 13.9743 160.391 13.993C160.356 14.0117 160.326 14.0388 160.304 14.072C160.281 14.1049 160.267 14.1431 160.263 14.183C160.259 14.223 160.265 14.263 160.28 14.301L165.126 26.193L162.45 33.143C162.425 33.2 162.423 33.2642 162.443 33.3229C162.464 33.3816 162.505 33.4305 162.56 33.46C162.597 33.48 162.638 33.49 162.679 33.489H165.275C165.324 33.4893 165.372 33.4745 165.412 33.4466C165.452 33.4186 165.483 33.379 165.5 33.333L173.068 14.307C173.085 14.2694 173.092 14.228 173.088 14.187C173.085 14.1457 173.07 14.1061 173.047 14.072ZM33.8939 9.72397C32.9979 6.91724 31.2373 4.46571 28.8639 2.71997C26.4898 0.973194 23.6244 0.0212181 20.6769 -3.40211e-05C18.1854 -0.013819 15.7372 0.650911 13.5948 1.92286C11.4524 3.1948 9.69667 5.02598 8.51594 7.21997C6.34946 7.60841 4.36332 8.67765 2.84619 10.2723C1.32907 11.8669 0.360037 13.9038 0.0799396 16.087C-0.198901 18.2704 0.226974 20.4857 1.29548 22.4101C2.36398 24.3345 4.01924 25.8673 6.01994 26.785L6.27994 26.902H6.29694V23.962C4.92508 23.1202 3.85096 21.8703 3.2251 20.3875C2.59925 18.9046 2.45303 17.2631 2.80694 15.693C3.1615 14.1224 3.99886 12.7022 5.20154 11.6317C6.40422 10.5612 7.91186 9.89411 9.51294 9.72397L10.2399 9.64797L10.5579 8.99397C11.4626 7.07822 12.8954 5.46064 14.688 4.33148C16.4806 3.20231 18.5584 2.60853 20.6769 2.61997C23.2019 2.63797 25.6479 3.49797 27.6269 5.06497C29.606 6.6315 31.0042 8.81501 31.5989 11.268L31.8489 12.258H32.8869C34.5606 12.2922 36.1546 12.979 37.3289 14.172C38.5023 15.3646 39.1627 16.9689 39.1689 18.642C39.1689 21.082 37.7609 23.078 35.3619 24.088V26.876L35.5349 26.82C39.3909 25.558 41.7869 22.424 41.7869 18.643C41.7708 16.4544 40.9627 14.3457 39.5119 12.707C38.0607 11.0673 36.0652 10.0081 33.8939 9.72497V9.72397Z" fill="#FCFDFF"/>
<path d="M15.6019 26.563L16.1769 27.138C16.1923 27.154 16.2027 27.1741 16.2068 27.1959C16.2109 27.2176 16.2086 27.2402 16.2001 27.2606C16.1916 27.2811 16.1773 27.2987 16.159 27.3112C16.1407 27.3237 16.1191 27.3306 16.0969 27.331H11.5619C11.0114 27.331 10.4834 27.1124 10.094 26.7233C9.70451 26.3343 9.48545 25.8065 9.48492 25.256V16.456C9.48505 16.4409 9.4822 16.426 9.47653 16.412C9.47086 16.3981 9.46249 16.3854 9.45189 16.3747C9.44129 16.364 9.42868 16.3555 9.41478 16.3497C9.40088 16.344 9.38598 16.341 9.37092 16.341H8.40092C8.37858 16.3409 8.35675 16.3343 8.33813 16.322C8.31951 16.3097 8.30492 16.2921 8.29619 16.2715C8.28745 16.251 8.28495 16.2283 8.28899 16.2063C8.29303 16.1844 8.30344 16.1641 8.31892 16.148L12.1689 12.301C12.185 12.2849 12.2054 12.274 12.2276 12.2696C12.2499 12.2651 12.2729 12.2673 12.2939 12.276C12.3078 12.2818 12.3203 12.2903 12.3309 12.301L16.1769 16.148C16.1923 16.164 16.2027 16.1841 16.2068 16.2059C16.2109 16.2276 16.2086 16.2502 16.2001 16.2706C16.1916 16.2911 16.1773 16.3087 16.159 16.3212C16.1407 16.3337 16.1191 16.3405 16.0969 16.341H15.1139C15.0831 16.3407 15.0533 16.3526 15.0312 16.3742C15.0091 16.3957 14.9964 16.4251 14.9959 16.456V25.104C14.9979 25.651 15.2159 26.175 15.6019 26.563ZM24.1079 26.563L24.6859 27.138C24.7015 27.1541 24.7119 27.1745 24.7159 27.1966C24.7199 27.2187 24.7173 27.2414 24.7085 27.262C24.6996 27.2826 24.6849 27.3001 24.6661 27.3124C24.6473 27.3247 24.6253 27.3311 24.6029 27.331H20.0779C19.5274 27.331 18.9994 27.1124 18.61 26.7233C18.2205 26.3343 18.0015 25.8065 18.0009 25.256V18.68C18.0009 18.6494 17.9891 18.6199 17.9678 18.5979C17.9465 18.5759 17.9175 18.563 17.8869 18.562H16.9069C16.8903 18.5615 16.874 18.5575 16.8591 18.5501C16.8442 18.5428 16.831 18.5323 16.8206 18.5193C16.8101 18.5064 16.8026 18.4914 16.7985 18.4752C16.7944 18.4591 16.7939 18.4423 16.7969 18.426C16.8012 18.4045 16.8116 18.3847 16.8269 18.369L20.6739 14.529C20.6845 14.5183 20.6971 14.5098 20.711 14.504C20.7249 14.4982 20.7399 14.4952 20.7549 14.4952C20.77 14.4952 20.7849 14.4982 20.7988 14.504C20.8127 14.5098 20.8253 14.5183 20.8359 14.529L24.6859 18.362C24.7015 18.3781 24.7119 18.3985 24.7159 18.4206C24.7199 18.4427 24.7173 18.4654 24.7085 18.486C24.6996 18.5066 24.6849 18.5241 24.6661 18.5364C24.6473 18.5487 24.6253 18.5551 24.6029 18.555H23.6199C23.5891 18.5558 23.5599 18.5685 23.5384 18.5906C23.5169 18.6126 23.5049 18.6422 23.5049 18.673V25.103C23.5049 25.65 23.7219 26.175 24.1079 26.563ZM32.6169 26.563L33.1919 27.138C33.2073 27.154 33.2177 27.1741 33.2218 27.1959C33.2259 27.2176 33.2236 27.2402 33.2151 27.2606C33.2066 27.2811 33.1923 27.2987 33.174 27.3112C33.1557 27.3237 33.1341 27.3306 33.1119 27.331H28.5729C28.0224 27.331 27.4944 27.1124 27.105 26.7233C26.7155 26.3343 26.4965 25.8065 26.4959 25.256V20.886C26.4957 20.8559 26.4835 20.8272 26.4622 20.806C26.4408 20.7848 26.412 20.773 26.3819 20.773H25.4119C25.3891 20.7728 25.3668 20.7659 25.348 20.7531C25.3291 20.7403 25.3145 20.7221 25.3059 20.701C25.2974 20.6798 25.2954 20.6566 25.3002 20.6343C25.3051 20.612 25.3164 20.5917 25.3329 20.576L29.1829 16.732C29.1934 16.7214 29.2059 16.7131 29.2196 16.7074C29.2333 16.7018 29.2481 16.6989 29.2629 16.699C29.2776 16.6989 29.2922 16.7018 29.3058 16.7075C29.3193 16.7131 29.3316 16.7215 29.3419 16.732L33.1919 20.576C33.2087 20.5917 33.2203 20.6122 33.2252 20.6347C33.2301 20.6571 33.2281 20.6806 33.2194 20.7019C33.2108 20.7232 33.1959 20.7414 33.1767 20.7541C33.1575 20.7668 33.1349 20.7733 33.1119 20.773H32.1249C32.0947 20.773 32.0657 20.785 32.0443 20.8064C32.0229 20.8277 32.0109 20.8567 32.0109 20.887V25.104C32.0119 25.651 32.2309 26.175 32.6169 26.563Z" fill="#FCFDFF"/>
</g>
</g>
<defs>
<clipPath id="clip0_12_35">
<rect width="174" height="34" fill="white"/>
</clipPath>
</defs>
</svg>
