<svg width="274" height="39" viewBox="0 0 274 39" fill="none" xmlns="http://www.w3.org/2000/svg">
<path d="M60.056 32.456C58.472 32.456 57.112 32.176 55.976 31.616C54.84 31.056 53.912 30.328 53.192 29.432C52.488 28.536 51.968 27.56 51.632 26.504C51.296 25.448 51.128 24.432 51.128 23.456V22.928C51.128 21.84 51.296 20.768 51.632 19.712C51.984 18.656 52.52 17.696 53.24 16.832C53.96 15.968 54.872 15.28 55.976 14.768C57.096 14.24 58.416 13.976 59.936 13.976C61.52 13.976 62.896 14.264 64.064 14.84C65.248 15.4 66.192 16.2 66.896 17.24C67.6 18.264 68.024 19.464 68.168 20.84H64.736C64.608 20.04 64.32 19.368 63.872 18.824C63.44 18.264 62.888 17.848 62.216 17.576C61.544 17.288 60.784 17.144 59.936 17.144C59.072 17.144 58.304 17.296 57.632 17.6C56.96 17.888 56.4 18.304 55.952 18.848C55.504 19.392 55.16 20.032 54.92 20.768C54.696 21.504 54.584 22.32 54.584 23.216C54.584 24.08 54.696 24.88 54.92 25.616C55.16 26.352 55.512 27 55.976 27.56C56.44 28.104 57.008 28.528 57.68 28.832C58.368 29.136 59.16 29.288 60.056 29.288C61.368 29.288 62.472 28.968 63.368 28.328C64.28 27.672 64.832 26.76 65.024 25.592H68.456C68.296 26.84 67.872 27.984 67.184 29.024C66.496 30.064 65.552 30.896 64.352 31.52C63.152 32.144 61.72 32.456 60.056 32.456ZM78.9639 32V28.136H78.4119V23.84C78.4119 23.088 78.2279 22.528 77.8599 22.16C77.4919 21.792 76.9239 21.608 76.1559 21.608C75.7559 21.608 75.2759 21.616 74.7159 21.632C74.1559 21.648 73.5879 21.672 73.0119 21.704C72.4519 21.72 71.9479 21.744 71.4999 21.776V18.944C71.8679 18.912 72.2839 18.88 72.7479 18.848C73.2119 18.816 73.6839 18.8 74.1639 18.8C74.6599 18.784 75.1239 18.776 75.5559 18.776C76.8999 18.776 78.0119 18.952 78.8919 19.304C79.7879 19.656 80.4599 20.208 80.9079 20.96C81.3719 21.712 81.6039 22.696 81.6039 23.912V32H78.9639ZM74.7639 32.336C73.8199 32.336 72.9879 32.168 72.2679 31.832C71.5639 31.496 71.0119 31.016 70.6119 30.392C70.2279 29.768 70.0359 29.016 70.0359 28.136C70.0359 27.176 70.2679 26.392 70.7319 25.784C71.2119 25.176 71.8759 24.72 72.7239 24.416C73.5879 24.112 74.5959 23.96 75.7479 23.96H78.7719V25.952H75.6999C74.9319 25.952 74.3399 26.144 73.9239 26.528C73.5239 26.896 73.3239 27.376 73.3239 27.968C73.3239 28.56 73.5239 29.04 73.9239 29.408C74.3399 29.776 74.9319 29.96 75.6999 29.96C76.1639 29.96 76.5879 29.88 76.9719 29.72C77.3719 29.544 77.6999 29.256 77.9559 28.856C78.2279 28.44 78.3799 27.88 78.4119 27.176L79.2279 28.112C79.1479 29.024 78.9239 29.792 78.5559 30.416C78.2039 31.04 77.7079 31.52 77.0679 31.856C76.4439 32.176 75.6759 32.336 74.7639 32.336ZM85.1773 32V18.968H87.8173V24.488H87.7453C87.7453 22.616 88.1453 21.2 88.9453 20.24C89.7453 19.28 90.9213 18.8 92.4733 18.8H92.9533V21.704H92.0413C90.9213 21.704 90.0493 22.008 89.4253 22.616C88.8173 23.208 88.5133 24.072 88.5133 25.208V32H85.1773ZM102.841 32.432C101.769 32.432 100.825 32.208 100.009 31.76C99.1931 31.296 98.5531 30.624 98.0891 29.744C97.6251 28.864 97.3691 27.8 97.3211 26.552H97.8251V32H95.1851V14.48H98.5211V23.24L97.6331 24.608C97.6971 23.264 97.9611 22.144 98.4251 21.248C98.9051 20.352 99.5451 19.68 100.345 19.232C101.145 18.784 102.049 18.56 103.057 18.56C103.953 18.56 104.769 18.728 105.505 19.064C106.241 19.4 106.873 19.872 107.401 20.48C107.929 21.072 108.329 21.768 108.601 22.568C108.889 23.368 109.033 24.24 109.033 25.184V25.688C109.033 26.632 108.889 27.512 108.601 28.328C108.313 29.144 107.897 29.864 107.353 30.488C106.809 31.096 106.153 31.576 105.385 31.928C104.633 32.264 103.785 32.432 102.841 32.432ZM102.097 29.624C102.817 29.624 103.441 29.448 103.969 29.096C104.513 28.728 104.937 28.232 105.241 27.608C105.545 26.984 105.697 26.264 105.697 25.448C105.697 24.616 105.545 23.896 105.241 23.288C104.937 22.68 104.513 22.208 103.969 21.872C103.441 21.536 102.817 21.368 102.097 21.368C101.441 21.368 100.833 21.512 100.273 21.8C99.7291 22.088 99.2811 22.512 98.9291 23.072C98.5931 23.632 98.4251 24.304 98.4251 25.088V26.048C98.4251 26.8 98.6011 27.44 98.9531 27.968C99.3051 28.496 99.7611 28.904 100.321 29.192C100.881 29.48 101.473 29.624 102.097 29.624ZM118.23 32.456C117.078 32.456 116.062 32.272 115.182 31.904C114.302 31.536 113.558 31.04 112.95 30.416C112.342 29.776 111.878 29.056 111.558 28.256C111.254 27.456 111.102 26.624 111.102 25.76V25.256C111.102 24.36 111.262 23.512 111.582 22.712C111.918 21.896 112.39 21.176 112.998 20.552C113.622 19.912 114.374 19.416 115.254 19.064C116.134 18.696 117.126 18.512 118.23 18.512C119.334 18.512 120.326 18.696 121.206 19.064C122.086 19.416 122.83 19.912 123.438 20.552C124.062 21.176 124.534 21.896 124.854 22.712C125.174 23.512 125.334 24.36 125.334 25.256V25.76C125.334 26.624 125.174 27.456 124.854 28.256C124.55 29.056 124.094 29.776 123.486 30.416C122.878 31.04 122.134 31.536 121.254 31.904C120.374 32.272 119.366 32.456 118.23 32.456ZM118.23 29.6C119.046 29.6 119.734 29.424 120.294 29.072C120.854 28.704 121.278 28.216 121.566 27.608C121.854 26.984 121.998 26.28 121.998 25.496C121.998 24.696 121.846 23.992 121.542 23.384C121.254 22.76 120.822 22.272 120.246 21.92C119.686 21.552 119.014 21.368 118.23 21.368C117.446 21.368 116.766 21.552 116.19 21.92C115.63 22.272 115.198 22.76 114.894 23.384C114.59 23.992 114.438 24.696 114.438 25.496C114.438 26.28 114.582 26.984 114.87 27.608C115.174 28.216 115.606 28.704 116.166 29.072C116.726 29.424 117.414 29.6 118.23 29.6ZM128.255 32V18.968H130.895V24.56H130.655C130.655 23.232 130.831 22.128 131.183 21.248C131.535 20.352 132.055 19.68 132.743 19.232C133.447 18.784 134.319 18.56 135.359 18.56H135.503C137.055 18.56 138.231 19.064 139.031 20.072C139.831 21.064 140.231 22.552 140.231 24.536V32H136.895V24.248C136.895 23.448 136.663 22.8 136.199 22.304C135.751 21.808 135.127 21.56 134.327 21.56C133.511 21.56 132.847 21.816 132.335 22.328C131.839 22.824 131.591 23.496 131.591 24.344V32H128.255ZM151.978 32.456C150.394 32.456 149.034 32.176 147.898 31.616C146.762 31.056 145.834 30.328 145.114 29.432C144.41 28.536 143.89 27.56 143.554 26.504C143.218 25.448 143.05 24.432 143.05 23.456V22.928C143.05 21.84 143.218 20.768 143.554 19.712C143.906 18.656 144.442 17.696 145.162 16.832C145.882 15.968 146.794 15.28 147.898 14.768C149.018 14.24 150.338 13.976 151.858 13.976C153.442 13.976 154.818 14.264 155.986 14.84C157.17 15.4 158.114 16.2 158.818 17.24C159.522 18.264 159.946 19.464 160.09 20.84H156.658C156.53 20.04 156.242 19.368 155.794 18.824C155.362 18.264 154.81 17.848 154.138 17.576C153.466 17.288 152.706 17.144 151.858 17.144C150.994 17.144 150.226 17.296 149.554 17.6C148.882 17.888 148.322 18.304 147.874 18.848C147.426 19.392 147.082 20.032 146.842 20.768C146.618 21.504 146.506 22.32 146.506 23.216C146.506 24.08 146.618 24.88 146.842 25.616C147.082 26.352 147.434 27 147.898 27.56C148.362 28.104 148.93 28.528 149.602 28.832C150.29 29.136 151.082 29.288 151.978 29.288C153.29 29.288 154.394 28.968 155.29 28.328C156.202 27.672 156.754 26.76 156.946 25.592H160.378C160.218 26.84 159.794 27.984 159.106 29.024C158.418 30.064 157.474 30.896 156.274 31.52C155.074 32.144 153.642 32.456 151.978 32.456ZM169.254 32.456C168.102 32.456 167.086 32.272 166.206 31.904C165.326 31.536 164.582 31.04 163.974 30.416C163.366 29.776 162.902 29.056 162.582 28.256C162.278 27.456 162.126 26.624 162.126 25.76V25.256C162.126 24.36 162.286 23.512 162.606 22.712C162.942 21.896 163.414 21.176 164.022 20.552C164.646 19.912 165.398 19.416 166.278 19.064C167.158 18.696 168.15 18.512 169.254 18.512C170.358 18.512 171.35 18.696 172.23 19.064C173.11 19.416 173.854 19.912 174.462 20.552C175.086 21.176 175.558 21.896 175.878 22.712C176.198 23.512 176.358 24.36 176.358 25.256V25.76C176.358 26.624 176.198 27.456 175.878 28.256C175.574 29.056 175.118 29.776 174.51 30.416C173.902 31.04 173.158 31.536 172.278 31.904C171.398 32.272 170.39 32.456 169.254 32.456ZM169.254 29.6C170.07 29.6 170.758 29.424 171.318 29.072C171.878 28.704 172.302 28.216 172.59 27.608C172.878 26.984 173.022 26.28 173.022 25.496C173.022 24.696 172.87 23.992 172.566 23.384C172.278 22.76 171.846 22.272 171.27 21.92C170.71 21.552 170.038 21.368 169.254 21.368C168.47 21.368 167.79 21.552 167.214 21.92C166.654 22.272 166.222 22.76 165.918 23.384C165.614 23.992 165.462 24.696 165.462 25.496C165.462 26.28 165.606 26.984 165.894 27.608C166.198 28.216 166.63 28.704 167.19 29.072C167.75 29.424 168.438 29.6 169.254 29.6ZM179.279 32V18.968H181.919V24.56H181.679C181.679 23.232 181.855 22.128 182.207 21.248C182.559 20.352 183.079 19.68 183.767 19.232C184.471 18.784 185.343 18.56 186.383 18.56H186.527C188.079 18.56 189.255 19.064 190.055 20.072C190.855 21.064 191.255 22.552 191.255 24.536V32H187.919V24.248C187.919 23.448 187.687 22.8 187.223 22.304C186.775 21.808 186.151 21.56 185.351 21.56C184.535 21.56 183.871 21.816 183.359 22.328C182.863 22.824 182.615 23.496 182.615 24.344V32H179.279ZM199.569 32.408C197.777 32.408 196.369 32.032 195.345 31.28C194.337 30.512 193.809 29.456 193.761 28.112H196.761C196.809 28.56 197.057 28.968 197.505 29.336C197.953 29.704 198.657 29.888 199.617 29.888C200.417 29.888 201.049 29.744 201.513 29.456C201.993 29.168 202.233 28.776 202.233 28.28C202.233 27.848 202.049 27.504 201.681 27.248C201.329 26.992 200.721 26.824 199.857 26.744L198.705 26.624C197.249 26.464 196.129 26.048 195.345 25.376C194.561 24.704 194.169 23.808 194.169 22.688C194.169 21.792 194.393 21.04 194.841 20.432C195.289 19.824 195.905 19.368 196.689 19.064C197.489 18.744 198.401 18.584 199.425 18.584C201.025 18.584 202.321 18.936 203.313 19.64C204.305 20.344 204.825 21.376 204.873 22.736H201.873C201.841 22.288 201.617 21.904 201.201 21.584C200.785 21.264 200.185 21.104 199.401 21.104C198.697 21.104 198.153 21.24 197.769 21.512C197.385 21.784 197.193 22.136 197.193 22.568C197.193 22.984 197.345 23.304 197.649 23.528C197.969 23.752 198.481 23.904 199.185 23.984L200.337 24.104C201.873 24.264 203.073 24.688 203.937 25.376C204.817 26.064 205.257 26.992 205.257 28.16C205.257 29.024 205.017 29.776 204.537 30.416C204.073 31.04 203.417 31.528 202.569 31.88C201.721 32.232 200.721 32.408 199.569 32.408ZM213.797 32.456C212.661 32.456 211.677 32.264 210.845 31.88C210.029 31.496 209.341 30.984 208.781 30.344C208.237 29.704 207.829 28.984 207.557 28.184C207.285 27.384 207.149 26.568 207.149 25.736V25.28C207.149 24.4 207.285 23.56 207.557 22.76C207.845 21.944 208.269 21.224 208.829 20.6C209.389 19.96 210.077 19.456 210.893 19.088C211.725 18.704 212.685 18.512 213.773 18.512C214.909 18.512 215.925 18.736 216.821 19.184C217.717 19.616 218.429 20.224 218.957 21.008C219.501 21.792 219.805 22.704 219.869 23.744H216.629C216.549 23.072 216.261 22.512 215.765 22.064C215.285 21.616 214.621 21.392 213.773 21.392C213.037 21.392 212.421 21.568 211.925 21.92C211.445 22.272 211.085 22.76 210.845 23.384C210.605 23.992 210.485 24.696 210.485 25.496C210.485 26.264 210.597 26.96 210.821 27.584C211.061 28.208 211.421 28.696 211.901 29.048C212.397 29.4 213.029 29.576 213.797 29.576C214.373 29.576 214.869 29.472 215.285 29.264C215.701 29.056 216.029 28.768 216.269 28.4C216.525 28.032 216.685 27.616 216.749 27.152H219.989C219.925 28.208 219.613 29.136 219.053 29.936C218.509 30.72 217.781 31.336 216.869 31.784C215.973 32.232 214.949 32.456 213.797 32.456ZM223.286 32V18.968H226.622V32H223.286ZM221.462 21.464V18.968H226.622V21.464H221.462ZM224.51 17.408C223.854 17.408 223.366 17.24 223.046 16.904C222.742 16.552 222.59 16.12 222.59 15.608C222.59 15.064 222.742 14.624 223.046 14.288C223.366 13.952 223.854 13.784 224.51 13.784C225.166 13.784 225.646 13.952 225.95 14.288C226.254 14.624 226.406 15.064 226.406 15.608C226.406 16.12 226.254 16.552 225.95 16.904C225.646 17.24 225.166 17.408 224.51 17.408ZM236.73 32.456C235.578 32.456 234.562 32.272 233.682 31.904C232.802 31.536 232.058 31.04 231.45 30.416C230.842 29.776 230.378 29.056 230.058 28.256C229.754 27.456 229.602 26.624 229.602 25.76V25.256C229.602 24.36 229.762 23.512 230.082 22.712C230.418 21.896 230.89 21.176 231.498 20.552C232.122 19.912 232.874 19.416 233.754 19.064C234.634 18.696 235.626 18.512 236.73 18.512C237.834 18.512 238.826 18.696 239.706 19.064C240.586 19.416 241.33 19.912 241.938 20.552C242.562 21.176 243.034 21.896 243.354 22.712C243.674 23.512 243.834 24.36 243.834 25.256V25.76C243.834 26.624 243.674 27.456 243.354 28.256C243.05 29.056 242.594 29.776 241.986 30.416C241.378 31.04 240.634 31.536 239.754 31.904C238.874 32.272 237.866 32.456 236.73 32.456ZM236.73 29.6C237.546 29.6 238.234 29.424 238.794 29.072C239.354 28.704 239.778 28.216 240.066 27.608C240.354 26.984 240.498 26.28 240.498 25.496C240.498 24.696 240.346 23.992 240.042 23.384C239.754 22.76 239.322 22.272 238.746 21.92C238.186 21.552 237.514 21.368 236.73 21.368C235.946 21.368 235.266 21.552 234.69 21.92C234.13 22.272 233.698 22.76 233.394 23.384C233.09 23.992 232.938 24.696 232.938 25.496C232.938 26.28 233.082 26.984 233.37 27.608C233.674 28.216 234.106 28.704 234.666 29.072C235.226 29.424 235.914 29.6 236.73 29.6ZM251.195 32.408C249.691 32.408 248.523 31.912 247.691 30.92C246.875 29.928 246.467 28.456 246.467 26.504V18.944H249.803V26.792C249.803 27.592 250.027 28.232 250.475 28.712C250.923 29.176 251.531 29.408 252.299 29.408C253.067 29.408 253.691 29.16 254.171 28.664C254.667 28.168 254.915 27.496 254.915 26.648V18.944H258.251V32H255.611V26.456H255.875C255.875 27.768 255.707 28.864 255.371 29.744C255.035 30.624 254.531 31.288 253.859 31.736C253.187 32.184 252.347 32.408 251.339 32.408H251.195ZM266.812 32.408C265.02 32.408 263.612 32.032 262.588 31.28C261.58 30.512 261.052 29.456 261.004 28.112H264.004C264.052 28.56 264.3 28.968 264.748 29.336C265.196 29.704 265.9 29.888 266.86 29.888C267.66 29.888 268.292 29.744 268.756 29.456C269.236 29.168 269.476 28.776 269.476 28.28C269.476 27.848 269.292 27.504 268.924 27.248C268.572 26.992 267.964 26.824 267.1 26.744L265.948 26.624C264.492 26.464 263.372 26.048 262.588 25.376C261.804 24.704 261.412 23.808 261.412 22.688C261.412 21.792 261.636 21.04 262.084 20.432C262.532 19.824 263.148 19.368 263.932 19.064C264.732 18.744 265.644 18.584 266.668 18.584C268.268 18.584 269.564 18.936 270.556 19.64C271.548 20.344 272.068 21.376 272.116 22.736H269.116C269.084 22.288 268.86 21.904 268.444 21.584C268.028 21.264 267.428 21.104 266.644 21.104C265.94 21.104 265.396 21.24 265.012 21.512C264.628 21.784 264.436 22.136 264.436 22.568C264.436 22.984 264.588 23.304 264.892 23.528C265.212 23.752 265.724 23.904 266.428 23.984L267.58 24.104C269.116 24.264 270.316 24.688 271.18 25.376C272.06 26.064 272.5 26.992 272.5 28.16C272.5 29.024 272.26 29.776 271.78 30.416C271.316 31.04 270.66 31.528 269.812 31.88C268.964 32.232 267.964 32.408 266.812 32.408Z" fill="#293145"/>
<circle cx="13" cy="13" r="13" fill="#0F9AFE"/>
<circle cx="26" cy="26" r="13" fill="#293145"/>
</svg>
