<svg width="96" height="19" viewBox="0 0 96 19" fill="none" xmlns="http://www.w3.org/2000/svg">
<g clip-path="url(#clip0_12_46)">
<mask id="mask0_12_46" style="mask-type:luminance" maskUnits="userSpaceOnUse" x="0" y="0" width="96" height="19">
<path d="M0 0H96V19H0V0Z" fill="white"/>
</mask>
<g mask="url(#mask0_12_46)">
<path d="M63.8179 0.00805664H80.5389V3.01606H73.9059V18.8431H70.5899V3.01606H63.8189L63.8179 0.00805664ZM36.3169 0.00805664V3.01606H22.9139V7.85606H33.6929V10.8641H22.9129V15.8341H36.3169V18.8431H19.5969V3.01606L19.5959 0.00805664H36.3169ZM44.6669 0.0160566H40.3269L55.8719 18.8501H60.2249L52.4519 9.44006L60.2139 0.0300566L55.8729 0.0370566L50.2789 6.80906L44.6669 0.0160566ZM49.1199 13.4701L46.9469 10.8351L40.3139 18.8651H44.6669L49.1199 13.4701Z" fill="#293145"/>
<path fill-rule="evenodd" clip-rule="evenodd" d="M19.713 18.843L4.146 0H0V18.835H3.317V4.026L15.547 18.843H19.713Z" fill="#293145"/>
<path d="M81.285 18.728C81.1701 18.7302 81.0558 18.7095 80.9489 18.6673C80.842 18.6251 80.7445 18.5621 80.662 18.482C80.5789 18.4066 80.513 18.3141 80.4688 18.2109C80.4246 18.1077 80.4032 17.9962 80.406 17.884C80.4038 17.7731 80.4256 17.6629 80.4697 17.5611C80.5139 17.4593 80.5795 17.3682 80.662 17.294C80.7446 17.2141 80.8421 17.1514 80.9491 17.1093C81.056 17.0673 81.1701 17.0468 81.285 17.049C81.398 17.0479 81.5102 17.069 81.615 17.1112C81.7198 17.1534 81.8153 17.2159 81.896 17.295C82.0362 17.4196 82.1275 17.5901 82.1535 17.7759C82.1795 17.9617 82.1386 18.1507 82.038 18.309C81.9583 18.4363 81.8475 18.5413 81.716 18.614C81.5851 18.6899 81.4363 18.7292 81.285 18.728ZM86.946 10.793H88.416V16.313C88.413 16.82 88.301 17.253 88.081 17.619C87.858 17.983 87.551 18.262 87.155 18.459C86.762 18.653 86.301 18.752 85.777 18.752C85.299 18.752 84.869 18.668 84.487 18.504C84.1204 18.3516 83.8055 18.0968 83.58 17.77C83.355 17.446 83.244 17.042 83.244 16.559H84.717C84.719 16.77 84.768 16.954 84.863 17.107C84.9565 17.2594 85.0919 17.3816 85.253 17.459C85.422 17.541 85.615 17.582 85.833 17.582C86.069 17.582 86.272 17.535 86.436 17.437C86.6034 17.3378 86.7353 17.1884 86.813 17.01C86.898 16.822 86.943 16.59 86.946 16.313V10.793ZM94.463 12.952C94.4499 12.7947 94.401 12.6425 94.3201 12.5069C94.2391 12.3714 94.1283 12.2562 93.996 12.17C93.719 11.983 93.362 11.89 92.923 11.89C92.616 11.89 92.35 11.935 92.13 12.024C91.9313 12.0979 91.7559 12.2236 91.622 12.388C91.5067 12.5389 91.4435 12.7231 91.442 12.913C91.442 13.077 91.482 13.219 91.562 13.338C91.64 13.459 91.746 13.561 91.883 13.643C92.018 13.727 92.168 13.796 92.333 13.852C92.499 13.908 92.665 13.956 92.831 13.994L93.598 14.178C93.906 14.247 94.204 14.34 94.49 14.458C94.775 14.575 95.034 14.724 95.26 14.903C95.488 15.083 95.667 15.298 95.8 15.551C95.933 15.803 96 16.099 96 16.44C96 16.9 95.879 17.303 95.634 17.653C95.389 18.001 95.036 18.273 94.573 18.469C94.113 18.663 93.555 18.762 92.899 18.762C92.265 18.762 91.712 18.667 91.247 18.478C90.78 18.29 90.415 18.013 90.153 17.651C89.89 17.288 89.748 16.846 89.728 16.326H91.184C91.204 16.597 91.294 16.824 91.447 17.008C91.602 17.188 91.804 17.323 92.052 17.413C92.302 17.502 92.58 17.547 92.888 17.547C93.208 17.547 93.492 17.5 93.737 17.407C93.98 17.314 94.171 17.185 94.307 17.017C94.4457 16.8526 94.5209 16.644 94.519 16.429C94.5232 16.2415 94.4564 16.0594 94.332 15.919C94.1875 15.7715 94.0129 15.6569 93.82 15.583C93.5705 15.4825 93.3138 15.401 93.052 15.339L92.122 15.11C91.449 14.944 90.917 14.692 90.528 14.353C90.137 14.013 89.943 13.565 89.943 13.001C89.943 12.54 90.073 12.134 90.337 11.786C90.597 11.439 90.955 11.169 91.407 10.976C91.861 10.782 92.373 10.687 92.944 10.687C93.524 10.687 94.031 10.783 94.47 10.977C94.908 11.169 95.252 11.437 95.501 11.777C95.751 12.119 95.881 12.509 95.888 12.952H94.463Z" fill="#293145"/>
</g>
</g>
<defs>
<clipPath id="clip0_12_46">
<rect width="96" height="19" fill="white"/>
</clipPath>
</defs>
</svg>
