<svg width="164" height="27" viewBox="0 0 164 27" fill="none" xmlns="http://www.w3.org/2000/svg">
<g clip-path="url(#clip0_12_44)">
<path d="M19.6 10.2H17.6V8.3C17.6 6.1 16.6 4 15 2.4C13.3 0.9 11.1 0 8.8 0C6.5 0 4.3 0.9 2.6 2.4C1 4 0 6.1 0 8.3V18.6C0 20.8 0.9 23 2.6 24.5C4.2 26.1 6.5 27 8.8 27H19.6C21.9 27 24.1 26.1 25.7 24.5C27.3 22.9 28.2 20.8 28.2 18.6C28.2 16.4 27.3 14.3 25.7 12.7C24.1 11.1 21.9 10.2 19.6 10.2ZM2 13.3V8.3C2 6.6 2.8 4.9 4 3.7C5.2 2.5 7 1.8 8.8 1.8C10.6 1.8 12.3 2.5 13.6 3.7C14.9 4.9 15.6 6.5 15.6 8.3V10.2H7.1L6.8 10.3H6.6C6.5 10.3 6.4 10.3 6.3 10.4H6.1L6 10.6H5.8C5.7 10.6 5.6 10.7 5.4 10.7H5.3C5.3 10.9 5.1 10.9 5 11L4.9 11.1C4.8 11.1 4.7 11.2 4.6 11.2L4.4 11.3C4.3 11.3 4.2 11.4 4.2 11.4C4.1 11.4 4.1 11.5 4 11.5L3.8 11.6L3.6 11.7L3.4 11.9L3.3 12L3.1 12.2L3 12.3C2.9 12.4 2.8 12.4 2.8 12.5L2.7 12.6L2.4 12.9L2.3 13C2.1 13.1 2.1 13.2 2 13.3ZM2 18.6C2 16.9 2.7 15.2 4 14C5.2 12.7 7 12 8.8 12H15.6V18.5C15.6 19.4 15.4 20.2 15.1 21C14.8 21.8 14.3 22.5 13.6 23.2C13 23.8 12.2 24.3 11.4 24.6C10.6 24.9 9.7 25.1 8.8 25.1C7.9 25.1 7 25.1 6.2 24.7C5.4 24.4 4.6 23.9 4 23.3C3.4 22.7 2.9 21.9 2.5 21.1C2.1 20.3 1.9 19.4 2 18.6ZM19.6 25.1H14.4C14.5 25 14.6 25 14.6 24.9L14.7 24.8L15 24.5L15.1 24.4L15.3 24.2L15.4 24.1L15.6 23.9L15.7 23.8L15.9 23.6L16 23.5C16 23.4 16.1 23.4 16.2 23.3L16.3 23.1C16.3 23 16.4 22.9 16.4 22.9L16.5 22.8C16.6 22.7 16.6 22.6 16.6 22.5C16.6 22.5 16.6 22.4 16.7 22.4C16.8 22.3 16.8 22.1 16.9 22V21.9C16.9 21.8 17 21.7 17 21.6C17 21.6 17 21.5 17.1 21.5C17.1 21.4 17.2 21.3 17.2 21.2V21C17.2 20.9 17.3 20.8 17.3 20.7V20.5C17.3 20.4 17.3 20.3 17.4 20.2V20V19.7V19.5V19.2V19V12H19.4C21.2 12 23 12.7 24.2 13.9C25.5 15.1 26.2 16.8 26.2 18.5C26.2 20.2 25.5 21.9 24.2 23.1C23.1 24.4 21.4 25.1 19.6 25.1ZM50.8 9.7L48.5 10.4C48.4 9.8 48.1 9.3 47.6 8.8C47.1 8.3 46.4 8.1 45.5 8.1C44.7 8.1 44.1 8.3 43.6 8.7C43.1 9.1 42.9 9.6 42.9 10.2C42.9 11.2 43.5 11.9 44.7 12.2L46.9 12.7C48.2 13 49.2 13.5 50 14.3C50.7 15.1 51.1 16 51.1 17.1C51.1 18.4 50.6 19.4 49.6 20.4C48.6 21.3 47.3 21.8 45.7 21.8C43.9 21.8 42.5 21.3 41.5 20.4C40.5 19.5 39.9 18.4 39.8 17.1L42.2 16.4C42.3 17.3 42.6 18 43.2 18.6C43.8 19.2 44.6 19.5 45.6 19.5C46.5 19.5 47.2 19.3 47.6 18.9C48.1 18.5 48.3 18 48.3 17.4C48.3 16.9 48.1 16.5 47.8 16.1C47.4 15.7 46.9 15.5 46.3 15.3L44.2 14.8C43 14.5 42 14 41.3 13.3C40.6 12.6 40.3 11.6 40.3 10.5C40.3 9.2 40.8 8.1 41.8 7.2C42.8 6.3 44 5.8 45.5 5.8C47.1 5.8 48.4 6.2 49.2 7C50 7.8 50.6 8.7 50.8 9.7ZM57.9 12.9C57.1 12.9 56.4 13.2 55.9 13.8C55.3 14.4 55.1 15.2 55.1 16.2C55.1 17.2 55.4 18 55.9 18.6C56.5 19.2 57.2 19.5 58 19.5C58.7 19.5 59.3 19.3 59.7 18.9C60.1 18.5 60.4 18 60.6 17.5L62.8 18.3C62.5 19.2 62 20 61.1 20.7C60.3 21.4 59.2 21.7 58 21.7C56.5 21.7 55.2 21.2 54.1 20.1C53.1 19 52.6 17.7 52.6 16.1C52.6 14.5 53.1 13.2 54.1 12.1C55.1 11.1 56.4 10.5 57.9 10.5C59.2 10.5 60.3 10.8 61.1 11.5C61.9 12.2 62.5 13 62.7 13.9L60.5 14.7C60.4 14.2 60.1 13.7 59.7 13.3C59.2 13.1 58.6 12.9 57.9 12.9ZM71.2 10.9V13.4C70.9 13.4 70.6 13.3 70.4 13.3C68.5 13.3 67.6 14.3 67.6 16.4V21.4H65V10.9H67.4V12.6C67.6 12 68 11.6 68.6 11.3C69.1 11 69.8 10.8 70.4 10.8C70.7 10.8 71 10.8 71.2 10.9ZM72.7 18.5C72.7 17.6 73 16.9 73.6 16.4C74.2 15.9 75 15.5 75.9 15.4L78.6 15C79.1 14.9 79.4 14.7 79.4 14.2C79.4 13.7 79.2 13.3 78.9 13.1C78.6 12.8 78.1 12.6 77.4 12.6C76.8 12.6 76.3 12.8 75.9 13.1C75.5 13.4 75.3 13.9 75.3 14.5L72.9 14C73 13.1 73.5 12.3 74.3 11.6C75.1 10.9 76.1 10.6 77.4 10.6C78.9 10.6 80 11 80.8 11.7C81.5 12.4 81.9 13.4 81.9 14.5V19.7C81.9 20.4 81.9 20.9 82 21.4H79.7C79.6 21.2 79.6 20.7 79.6 20.1C78.9 21.2 77.8 21.8 76.4 21.8C75.3 21.8 74.5 21.5 73.8 20.9C73 20.1 72.7 19.4 72.7 18.5ZM76.7 19.7C77.5 19.7 78.1 19.5 78.6 19.1C79.1 18.7 79.3 18 79.3 17V16.5L76.6 17C75.7 17.2 75.2 17.6 75.2 18.4C75.2 18.8 75.3 19.1 75.6 19.4C75.9 19.6 76.2 19.7 76.7 19.7ZM87.3 25.5H84.8V10.9H87.2V12.3C87.5 11.8 87.9 11.4 88.5 11.1C89.1 10.8 89.8 10.6 90.5 10.6C92 10.6 93.2 11.1 94 12.1C94.9 13.1 95.3 14.4 95.3 16C95.3 17.6 94.8 18.9 93.9 20C93 21 91.8 21.5 90.3 21.5C89.6 21.5 88.9 21.4 88.4 21.1C87.8 20.8 87.4 20.5 87.1 20.1V25.5H87.3ZM92.9 16.1C92.9 15.1 92.6 14.3 92.1 13.8C91.6 13.2 90.9 12.9 90.1 12.9C89.3 12.9 88.6 13.2 88.1 13.8C87.6 14.4 87.3 15.2 87.3 16.1C87.3 17.1 87.6 17.9 88.1 18.5C88.6 19.1 89.3 19.4 90.1 19.4C90.9 19.4 91.6 19.1 92.1 18.5C92.7 17.9 92.9 17.1 92.9 16.1ZM100.4 21.4H97.9V10.9H100.4V21.4ZM98 8.4C97.7 8.1 97.5 7.7 97.5 7.3C97.5 6.9 97.7 6.5 98 6.2C98.3 5.9 98.7 5.7 99.1 5.7C99.6 5.7 99.9 5.9 100.3 6.2C100.6 6.5 100.8 6.9 100.8 7.4C100.8 7.8 100.6 8.2 100.3 8.5C100 8.8 99.6 9 99.1 9C98.7 8.9 98.3 8.7 98 8.4ZM106.2 15.3V21.3H103.7V10.9H106.1V12.3C106.4 11.7 106.9 11.3 107.4 11C108 10.7 108.6 10.6 109.2 10.6C110.4 10.6 111.4 11 112 11.8C112.6 12.6 113 13.6 113 14.8V21.4H110.5V15.2C110.5 14.5 110.3 13.9 110 13.5C109.7 13.1 109.1 12.9 108.4 12.9C107.7 12.9 107.2 13.1 106.8 13.6C106.3 14 106.2 14.6 106.2 15.3ZM115.3 22L117.6 21.4C117.7 22.1 118 22.6 118.4 23C118.9 23.4 119.5 23.6 120.2 23.6C122.2 23.6 123.2 22.6 123.2 20.5V19.4C123 19.8 122.6 20.2 122 20.5C121.5 20.8 120.8 20.9 120.1 20.9C118.7 20.9 117.5 20.4 116.6 19.5C115.7 18.5 115.2 17.3 115.2 15.8C115.2 14.4 115.7 13.2 116.6 12.2C117.5 11.2 118.7 10.7 120.1 10.7C121.6 10.7 122.7 11.2 123.2 12.2V10.9H125.6V20.4C125.6 21.9 125.2 23.2 124.3 24.2C123.4 25.2 122.1 25.7 120.2 25.7C118.9 25.7 117.7 25.3 116.8 24.6C116 24 115.5 23 115.3 22ZM120.6 18.8C121.4 18.8 122 18.5 122.5 18C123 17.5 123.3 16.7 123.3 15.8C123.3 14.9 123.1 14.2 122.5 13.7C122 13.2 121.4 12.9 120.6 12.9C119.8 12.9 119.1 13.2 118.6 13.7C118.1 14.2 117.8 14.9 117.8 15.8C117.8 16.7 118.1 17.4 118.6 18C119.1 18.5 119.8 18.8 120.6 18.8ZM129 6.1H134.2C135.6 6.1 136.8 6.5 137.6 7.2C138.4 8 138.8 8.9 138.8 10.2C138.8 11 138.6 11.7 138.2 12.3C137.8 12.9 137.2 13.3 136.6 13.5C137.4 13.7 138.1 14.2 138.6 14.8C139.1 15.5 139.4 16.2 139.4 17.1C139.4 18.3 139 19.3 138.1 20.1C137.2 20.9 136.1 21.3 134.7 21.3H129V6.1ZM131.6 12.6H133.9C134.6 12.6 135.2 12.4 135.7 12C136.1 11.6 136.3 11.1 136.3 10.5C136.3 9.8 136.1 9.3 135.6 9C135.2 8.6 134.6 8.4 133.8 8.4H131.5V12.6H131.6ZM131.6 19.2H134.2C135 19.2 135.6 19 136 18.6C136.5 18.2 136.7 17.7 136.7 17C136.7 16.3 136.5 15.8 136 15.4C135.6 15 135 14.8 134.2 14.8H131.5V19.2H131.6ZM143.8 15H148.9C148.9 14.3 148.6 13.8 148.2 13.3C147.8 12.9 147.1 12.6 146.3 12.6C145.6 12.6 145 12.8 144.5 13.3C144.1 13.8 143.8 14.4 143.8 15ZM149.2 17.7L151.3 18.4C151 19.4 150.4 20.2 149.6 20.8C148.8 21.4 147.8 21.7 146.6 21.7C145.1 21.7 143.8 21.2 142.8 20.2C141.8 19.2 141.3 17.8 141.3 16.1C141.3 14.5 141.8 13.2 142.8 12.1C143.8 11.1 145 10.6 146.4 10.6C148 10.6 149.3 11.1 150.2 12.1C151.1 13.1 151.6 14.4 151.6 16.1C151.6 16.5 151.6 16.8 151.5 16.9H143.9C143.9 17.7 144.2 18.3 144.8 18.9C145.4 19.4 146 19.7 146.8 19.7C147.9 19.6 148.8 18.9 149.2 17.7ZM155.6 15H160.7C160.7 14.3 160.4 13.8 160 13.3C159.6 12.9 158.9 12.6 158.1 12.6C157.4 12.6 156.8 12.8 156.3 13.3C155.9 13.8 155.7 14.4 155.6 15ZM161 17.7L163.1 18.4C162.8 19.4 162.2 20.2 161.4 20.8C160.6 21.4 159.6 21.7 158.4 21.7C156.9 21.7 155.6 21.2 154.6 20.2C153.6 19.2 153.1 17.8 153.1 16.1C153.1 14.5 153.6 13.2 154.6 12.1C155.6 11.1 156.8 10.6 158.2 10.6C159.8 10.6 161.1 11.1 162 12.1C162.9 13.1 163.4 14.4 163.4 16.1C163.4 16.5 163.4 16.8 163.3 16.9H155.7C155.7 17.7 156 18.3 156.6 18.9C157.2 19.4 157.8 19.7 158.6 19.7C159.8 19.6 160.6 18.9 161 17.7Z" fill="#FCFDFF"/>
</g>
<defs>
<clipPath id="clip0_12_44">
<rect width="164" height="27" fill="white"/>
</clipPath>
</defs>
</svg>
