<svg width="96" height="22" viewBox="0 0 96 22" fill="none" xmlns="http://www.w3.org/2000/svg">
<g clip-path="url(#clip0_12_54)">
<path d="M47.891 5.5C44.143 5.5 41.44 7.975 41.44 11.688C41.44 15.4 44.482 17.875 48.23 17.875C50.496 17.875 52.492 16.968 53.728 15.438L51.131 13.918C50.445 14.678 49.402 15.122 48.231 15.122C46.604 15.122 45.222 14.262 44.71 12.887H54.224C54.299 12.502 54.343 12.103 54.343 11.684C54.343 7.975 51.64 5.5 47.891 5.5ZM44.679 10.484C45.104 9.113 46.265 8.25 47.888 8.25C49.514 8.25 50.676 9.113 51.097 10.484H44.679ZM84.455 5.5C80.706 5.5 78.003 7.975 78.003 11.688C78.003 15.4 81.046 17.875 84.795 17.875C87.059 17.875 89.056 16.968 90.292 15.438L87.694 13.918C87.008 14.678 85.966 15.122 84.794 15.122C83.168 15.122 81.786 14.262 81.274 12.887H90.788C90.863 12.502 90.907 12.103 90.907 11.684C90.907 7.975 88.204 5.5 84.455 5.5ZM81.246 10.484C81.671 9.113 82.832 8.25 84.455 8.25C86.082 8.25 87.243 9.113 87.664 10.484H81.246ZM67.993 11.688C67.993 13.75 69.324 15.125 71.389 15.125C72.788 15.125 73.837 14.482 74.377 13.434L76.985 14.957C75.905 16.778 73.881 17.875 71.389 17.875C67.637 17.875 64.937 15.4 64.937 11.687C64.937 7.975 67.64 5.5 71.389 5.5C73.881 5.5 75.902 6.597 76.985 8.418L74.377 9.941C73.837 8.893 72.787 8.25 71.389 8.25C69.328 8.25 67.993 9.625 67.993 11.688ZM96 1.717V17.53H92.944V1.72H96V1.717ZM12.547 0L25.093 22H0L12.547 0ZM43.915 1.719L34.505 18.219L25.097 1.719H28.625L34.505 12.031L40.388 1.72H43.916L43.915 1.719ZM63.92 5.844V9.174C63.58 9.075 63.22 9.006 62.833 9.006C60.86 9.006 59.437 10.381 59.437 12.444V17.531H56.38V5.844H59.436V9.006C59.436 7.26 61.444 5.844 63.92 5.844Z" fill="#293145"/>
</g>
<defs>
<clipPath id="clip0_12_54">
<rect width="96" height="22" fill="white"/>
</clipPath>
</defs>
</svg>
