<svg width="66" height="27" viewBox="0 0 66 27" fill="none" xmlns="http://www.w3.org/2000/svg">
<g clip-path="url(#clip0_12_42)">
<path d="M18.1311 9.628V10.425C18.1446 12.0877 17.6582 13.7161 16.7351 15.099C15.8462 16.4914 14.5743 17.5977 13.0721 18.285C14.5751 18.9719 15.8477 20.0782 16.7371 21.471C17.6598 22.8548 18.1454 24.4839 18.1311 26.147V26.943H15.4101V26.146C15.4101 25.315 15.2471 24.541 14.9211 23.826C14.632 23.1062 14.1922 22.4566 13.6311 21.921C13.0979 21.3688 12.4561 20.9329 11.7461 20.641C11.0099 20.3145 10.2124 20.1491 9.40708 20.156C8.60217 20.1489 7.80504 20.314 7.06908 20.64C6.35222 20.9376 5.70061 21.3728 5.15108 21.921C4.60418 22.4689 4.16581 23.1152 3.85908 23.826C3.55313 24.5609 3.39903 25.35 3.40608 26.146V26.943H0.684082V26.146C0.684082 24.438 1.13708 22.879 2.04408 21.471C2.95266 20.0817 4.23524 18.9772 5.74408 18.285C4.23527 17.5927 2.9527 16.4883 2.04408 15.099C1.13708 13.69 0.684082 12.132 0.684082 10.424V9.626H3.40508V10.424C3.40508 11.254 3.55708 12.029 3.85908 12.744C4.17719 13.4485 4.61424 14.0929 5.15108 14.649C5.71108 15.182 6.36108 15.615 7.06908 15.929C7.81063 16.2334 8.6055 16.3868 9.40708 16.38C10.2451 16.38 11.0251 16.23 11.7461 15.931C12.4467 15.6215 13.0851 15.1871 13.6301 14.649C14.1815 14.1051 14.6202 13.4577 14.9211 12.744C15.2501 12.014 15.4161 11.223 15.4101 10.424V9.626H18.1311V9.628ZM36.5571 26.943H33.8351V18.285C33.8403 17.5741 33.7096 16.8688 33.4501 16.207C33.2241 15.5723 32.8812 14.9855 32.4391 14.477C31.9917 13.9406 31.4472 13.4935 30.8341 13.159C30.2224 12.7877 29.5485 12.5302 28.8451 12.399C28.1391 12.2828 27.4181 12.2939 26.7161 12.432C26.0402 12.5475 25.3902 12.7818 24.7961 13.124C24.2066 13.4775 23.6768 13.922 23.2261 14.441C22.7747 14.9885 22.4209 15.6096 22.1801 16.277C21.9511 16.9457 21.8329 17.6472 21.8301 18.354C21.8301 19.048 21.9471 19.717 22.1801 20.364C22.4371 21.012 22.7901 21.618 23.2261 22.164C23.6911 22.694 24.2391 23.134 24.8661 23.48C25.7742 23.9822 26.7954 24.2445 27.8331 24.242C28.7161 24.242 29.5541 24.057 30.3451 23.687C31.1684 23.3112 31.8964 22.7548 32.4751 22.059V25.592C31.0797 26.4855 29.4549 26.9545 27.7981 26.942C26.7123 26.944 25.6354 26.745 24.6221 26.355C23.5854 25.9538 22.6372 25.3535 21.8311 24.588C21.121 23.9332 20.5305 23.1596 20.0861 22.302C19.6502 21.4675 19.3552 20.5667 19.2131 19.636C19.0733 18.7059 19.0733 17.7601 19.2131 16.83C19.3734 15.8675 19.7043 14.9413 20.1901 14.095C20.9821 12.687 22.0511 11.59 23.4001 10.805C24.7357 10.0293 26.2535 9.62237 27.7981 9.626C29.0081 9.626 30.1361 9.858 31.1821 10.32C32.2255 10.7404 33.1747 11.3645 33.9741 12.156C34.7768 12.9347 35.4174 13.8646 35.8591 14.892C36.3251 15.93 36.5571 17.062 36.5571 18.285V26.943ZM40.8741 12.363V18.285C40.8741 19.115 41.0251 19.89 41.3271 20.605C41.645 21.3096 42.0821 21.954 42.6191 22.51C43.1801 23.043 43.8291 23.477 44.5391 23.792C45.2808 24.0957 46.0756 24.2484 46.8771 24.241V26.943C45.7046 26.9505 44.5421 26.7269 43.4561 26.285C41.3858 25.387 39.7293 23.7427 38.8161 21.679C38.3708 20.6032 38.145 19.4493 38.1521 18.285V0H40.8741V9.662H46.8771V12.363H40.8741ZM66.0001 26.943H63.2801V18.285C63.2848 17.5742 63.1541 16.869 62.8951 16.207C62.6684 15.5723 62.3252 14.9856 61.8831 14.477C61.4353 13.9407 60.8905 13.4935 60.2771 13.159C59.6654 12.7877 58.9915 12.5303 58.2881 12.399C57.5825 12.2829 56.8618 12.2941 56.1601 12.432C55.4846 12.5475 54.8349 12.7818 54.2411 13.124C53.6514 13.4772 53.1215 13.9217 52.6711 14.441C52.2189 14.9883 51.8644 15.6093 51.6231 16.277C51.3946 16.9457 51.277 17.6473 51.2751 18.354C51.2751 19.048 51.3901 19.717 51.6231 20.364C51.8803 21.0131 52.2336 21.6199 52.6711 22.164C53.1351 22.694 53.6821 23.134 54.3111 23.48C55.2189 23.9821 56.2397 24.2443 57.2771 24.242C58.1601 24.242 58.9971 24.057 59.7881 23.687C60.6112 23.311 61.3392 22.7546 61.9181 22.059V25.592C60.5229 26.4851 58.8986 26.9541 57.2421 26.942C56.1562 26.9441 55.0794 26.7451 54.0661 26.355C53.0294 25.9538 52.0812 25.3535 51.2751 24.588C50.5648 23.9333 49.9743 23.1597 49.5301 22.302C49.0943 21.4675 48.7997 20.5667 48.6581 19.636C48.5184 18.7059 48.5184 17.7601 48.6581 16.83C48.8181 15.868 49.1481 14.942 49.6351 14.095C50.4251 12.687 51.4951 11.59 52.8451 10.805C54.1804 10.0293 55.6978 9.62245 57.2421 9.626C58.4067 9.6167 59.5601 9.85318 60.6271 10.32C61.6971 10.758 62.6271 11.371 63.4191 12.156C64.2214 12.9348 64.8617 13.8647 65.3031 14.892C65.7671 15.93 66.0001 17.062 66.0001 18.285V26.943Z" fill="#293145"/>
</g>
<defs>
<clipPath id="clip0_12_42">
<rect width="66" height="27" fill="white"/>
</clipPath>
</defs>
</svg>
